<svg xmlns="http://www.w3.org/2000/svg" width="15.752" height="21" viewBox="0 0 15.752 21">
  <path id="ic_whatshot_24px" d="M13.353.67A21.161,21.161,0,0,1,14.082,5.4a3.417,3.417,0,0,1-3.357,3.672A3.583,3.583,0,0,1,7.15,5.4l.03-.354A13.555,13.555,0,0,0,4,13.794a7.876,7.876,0,0,0,15.752,0A16.85,16.85,0,0,0,13.353.67ZM11.591,18.716a3.127,3.127,0,0,1-3.17-3.091,3.083,3.083,0,0,1,2.767-3.072,7.593,7.593,0,0,0,4.549-2.54,13.737,13.737,0,0,1,.581,3.977,4.727,4.727,0,0,1-4.726,4.726Z" transform="translate(-4 -0.67)" fill="#bf134e"/>
</svg>
