<svg xmlns="http://www.w3.org/2000/svg" width="22.888" height="21" viewBox="0 0 22.888 21">
  <path id="ic_favorite_border_24px" d="M18.594,3a6.853,6.853,0,0,0-5.15,2.392A6.853,6.853,0,0,0,8.294,3,6.233,6.233,0,0,0,2,9.294C2,13.62,5.891,17.145,11.785,22.5L13.444,24,15.1,22.489c5.894-5.344,9.785-8.869,9.785-13.2A6.233,6.233,0,0,0,18.594,3ZM13.559,20.8l-.114.114L13.33,20.8C7.882,15.863,4.289,12.6,4.289,9.294A3.911,3.911,0,0,1,8.294,5.289a4.474,4.474,0,0,1,4.086,2.7h2.14a4.446,4.446,0,0,1,4.074-2.7A3.911,3.911,0,0,1,22.6,9.294C22.6,12.6,19.006,15.863,13.559,20.8Z" transform="translate(-2 -3)" fill="#bf134e"/>
</svg>
