<svg xmlns="http://www.w3.org/2000/svg" xmlns:xlink="http://www.w3.org/1999/xlink" width="140.96" height="270.946" viewBox="0 0 140.96 270.946">
  <defs>
    <clipPath id="clip-path">
      <rect width="140.96" height="270.946" fill="none"/>
    </clipPath>
  </defs>
  <g id="Logo" transform="translate(-717.041 -19.906)">
    <g id="Grille_de_répétition_125" data-name="Grille de répétition 125" transform="translate(717.041 19.906)" clip-path="url(#clip-path)">
      <g transform="translate(-717.041 -19.906)">
        <g id="flame" transform="translate(720.068 19.906)">
          <g id="Groupe_26" data-name="Groupe 26" transform="translate(0 0)">
            <g id="Groupe_25" data-name="Groupe 25">
              <path id="Tracé_144" data-name="Tracé 144" d="M121.587,99.943s6,8.972,5.517,19.629c-.471,10.228-.157,19.216-15.591,30.725a66.839,66.839,0,1,0,107.734,52.862c0-32.786-27.627-73.83-35.449-86.248-9.445-15-17.669-33.93-14.763-59.784,2.9-25.836,10.158-39.255,10.158-39.255S156.928,40.56,149.184,65.817s-6.02,43.977-.244,58.982C140.806,104.934,121.587,99.943,121.587,99.943Z" transform="translate(-85.558 -17.873)" fill="#79bfc9"/>
            </g>
          </g>
        </g>
        <g id="Inverted_heart" data-name="Inverted heart" transform="translate(717.041 169.715)">
          <g id="Groupe_29" data-name="Groupe 29" transform="translate(0)">
            <g id="Groupe_28" data-name="Groupe 28">
              <path id="Tracé_145" data-name="Tracé 145" d="M38.684,0C15.245,0,.083,23.3,0,42.446c-.152,35.21,70.474,78.691,70.474,78.691S141.113,77.66,140.96,42.446C140.874,23.3,125.7,0,102.265,0,91.514,0,77.952,7.007,70.474,13.6,62.995,7.007,49.435,0,38.684,0Z" transform="translate(0)" fill="#f4f4f8"/>
            </g>
          </g>
        </g>
      </g>
    </g>
    <g id="Hands" transform="translate(726.703 179.125)">
      <g id="Groupe_32" data-name="Groupe 32" transform="translate(0 0)">
        <g id="Groupe_31" data-name="Groupe 31">
          <path id="Tracé_146" data-name="Tracé 146" d="M140.7,47.35A37.756,37.756,0,0,0,90.267,44.7a37.754,37.754,0,0,0-50.608,55.881c.049.059.1.118.155.176l7.011,7.007a7.013,7.013,0,0,0,1.7,7.217,8.251,8.251,0,0,0,7.725,2.206l.357.357A7.005,7.005,0,0,0,58.32,124.7a8.258,8.258,0,0,0,7.67,2.224l.3.3a7.01,7.01,0,0,0,1.744,7.068,8.28,8.28,0,0,0,7.583,2.258l.419.419a7.013,7.013,0,0,0,1.761,7.014,8.158,8.158,0,0,0,7.989,2.109,9.431,9.431,0,0,0,13.948-8.3,9.864,9.864,0,0,0-.073-1.126,10.015,10.015,0,0,0,1.126.073,9.458,9.458,0,0,0,9.465-9.458,9.23,9.23,0,0,0-.073-1.126,9.9,9.9,0,0,0,1.122.073h.007a9.448,9.448,0,0,0,9.378-10.6,9.342,9.342,0,0,0,7.837-2.7h0l12.187-12.177a2.175,2.175,0,0,0,.145-.162,37.762,37.762,0,0,0-.152-53.24ZM125.66,110.059a5.417,5.417,0,0,1-7.66,0L96.375,88.438A2.026,2.026,0,0,0,93.511,91.3l21.621,21.626a5.413,5.413,0,0,1-3.82,9.24h0a5.372,5.372,0,0,1-3.826-1.59h0L85.856,98.958a2.027,2.027,0,1,0-2.865,2.868l21.62,21.621A5.412,5.412,0,0,1,96.96,131.1L75.34,109.483a2.028,2.028,0,0,0-2.868,2.868L94.1,133.975a5.355,5.355,0,0,1,1.587,3.816,5.414,5.414,0,0,1-9.245,3.833L42.852,98.051a2.054,2.054,0,0,0-.152-.169A33.68,33.68,0,0,1,87.193,47.476c-1.714,1.714-23.107,23.1-26.774,26.773-2.552,2.55-2.3,6.236.641,9.177a13.886,13.886,0,0,0,19.554-.4L94.019,70.81l31.635,31.6A5.418,5.418,0,0,1,125.66,110.059Z" transform="translate(-28.788 -36.296)" fill="#ff6868"/>
        </g>
      </g>
    </g>
  </g>
</svg>
